<svg width="120" height="150" viewBox="0 0 120 150" fill="none" xmlns="http://www.w3.org/2000/svg">
<mask id="path-1-inside-1_14_196" fill="white">
<path fill-rule="evenodd" clip-rule="evenodd" d="M0 115V150H120V115H78.0133L60 89L41.9867 115H0ZM120 85V0H0V85H25.359L60 35L94.641 85H120Z"/>
</mask>
<path fill-rule="evenodd" clip-rule="evenodd" d="M0 115V150H120V115H78.0133L60 89L41.9867 115H0ZM120 85V0H0V85H25.359L60 35L94.641 85H120Z" fill="#007C0C"/>
<path d="M0 150H-5V155H0V150ZM0 115V110H-5V115H0ZM120 150V155H125V150H120ZM120 115H125V110H120V115ZM78.0133 115L73.9034 117.847L75.3947 120H78.0133V115ZM60 89L64.11 86.1525L60 80.2203L55.89 86.1525L60 89ZM41.9867 115V120H44.6053L46.0966 117.847L41.9867 115ZM120 0H125V-5H120V0ZM120 85V90H125V85H120ZM0 0V-5H-5V0H0ZM0 85H-5V90H0V85ZM25.359 85V90H27.9777L29.469 87.8475L25.359 85ZM60 35L64.11 32.1525L60 26.2203L55.8901 32.1525L60 35ZM94.641 85L90.5311 87.8475L92.0224 90H94.641V85ZM5 150V115H-5V150H5ZM120 145H0V155H120V145ZM115 115V150H125V115H115ZM78.0133 120H120V110H78.0133V120ZM55.89 91.8475L73.9034 117.847L82.1233 112.153L64.11 86.1525L55.89 91.8475ZM46.0966 117.847L64.11 91.8475L55.89 86.1525L37.8767 112.153L46.0966 117.847ZM0 120H41.9867V110H0V120ZM115 0V85H125V0H115ZM0 5H120V-5H0V5ZM5 85V0H-5V85H5ZM25.359 80H0V90H25.359V80ZM55.8901 32.1525L21.249 82.1525L29.469 87.8475L64.11 37.8475L55.8901 32.1525ZM98.751 82.1525L64.11 32.1525L55.8901 37.8475L90.5311 87.8475L98.751 82.1525ZM120 80H94.641V90H120V80Z" fill="#007C0C" mask="url(#path-1-inside-1_14_196)"/>
</svg>
